# xmcd
#
# Track frame offsets: 
#        150
#        14832
#        29997
#        46350
#        63475
#        79352
#        99217
#        113935
#        130000
#        146022
#        164800
#        179517
#        196525
#        216400
#        242916
#
# Disc length: 4440 seconds
#
# Revision: 1
# Processed by: cddbd v1.5.2PL0 Copyright (c) Steve Scherf et al.
# Submitted via: ExactAudioCopy v1.0b4
#
DISCID=e611560f
DTITLE=Kevin Lyttle - Kevin Lyttle
DYEAR=2004
DGENRE=Blues
TTITLE0=Turn Me On
TTITLE1=Last Drop (Feat. Spragga Benz)
TTITLE2=Never Wanna Make U Cry
TTITLE3=If You Want Me (Call Me)
TTITLE4=I Got It
TTITLE5=Sign Your Name
TTITLE6=Screaming Out My Name (Feat. Assasin)
TTITLE7=My Lady
TTITLE8=Ya Kiss
TTITLE9=So High
TTITLE10=Dancing Like Making Love
TTITLE11=My Love
TTITLE12=Mama Mia (Feat. Spragga Benz)
TTITLE13=Turn Me On (Feat. Spragga Benz)(Remix)
TTITLE14=DATA
EXTD=
EXTT0=
EXTT1=
EXTT2=
EXTT3=
EXTT4=
EXTT5=
EXTT6=
EXTT7=
EXTT8=
EXTT9=
EXTT10=
EXTT11=
EXTT12=
EXTT13=
EXTT14=
PLAYORDER=
